<svg width="157" height="20" viewBox="0 0 157 20" fill="none" xmlns="http://www.w3.org/2000/svg">
<path d="M6.69443 19.125C5.4111 19.125 4.1861 18.9083 3.01943 18.475C1.86943 18.025 0.969434 17.45 0.319434 16.75L0.894434 15.8C1.5111 16.45 2.3361 16.9833 3.36943 17.4C4.41943 17.8 5.51943 18 6.66943 18C8.3361 18 9.59443 17.6833 10.4444 17.05C11.2944 16.4167 11.7194 15.5917 11.7194 14.575C11.7194 13.7917 11.4944 13.1667 11.0444 12.7C10.5944 12.2333 10.0361 11.875 9.36943 11.625C8.70277 11.375 7.80277 11.1167 6.66943 10.85C5.3861 10.5333 4.35277 10.225 3.56943 9.925C2.80277 9.625 2.14443 9.16667 1.59443 8.55C1.0611 7.91667 0.794434 7.075 0.794434 6.025C0.794434 5.175 1.01943 4.4 1.46943 3.7C1.91943 2.98333 2.60277 2.41667 3.51943 2C4.45277 1.58333 5.6111 1.375 6.99443 1.375C7.9611 1.375 8.9111 1.51667 9.84443 1.8C10.7778 2.08333 11.5861 2.46667 12.2694 2.95L11.7944 3.975C11.0944 3.49167 10.3194 3.125 9.46943 2.875C8.6361 2.625 7.8111 2.5 6.99443 2.5C5.37777 2.5 4.15277 2.825 3.31943 3.475C2.4861 4.125 2.06943 4.96667 2.06943 6C2.06943 6.78333 2.29443 7.40833 2.74443 7.875C3.19443 8.34167 3.75277 8.7 4.41943 8.95C5.0861 9.2 5.99443 9.46667 7.14443 9.75C8.42777 10.0667 9.45277 10.375 10.2194 10.675C10.9861 10.975 11.6361 11.4333 12.1694 12.05C12.7194 12.65 12.9944 13.4667 12.9944 14.5C12.9944 15.35 12.7611 16.125 12.2944 16.825C11.8444 17.525 11.1444 18.0833 10.1944 18.5C9.24443 18.9167 8.07777 19.125 6.69443 19.125ZM22.0288 19.1C20.7955 19.1 19.6788 18.8167 18.6788 18.25C17.6955 17.6833 16.9205 16.9 16.3538 15.9C15.7871 14.8833 15.5038 13.7417 15.5038 12.475C15.5038 11.2083 15.7871 10.075 16.3538 9.075C16.9205 8.05833 17.6955 7.26667 18.6788 6.7C19.6788 6.13333 20.7955 5.85 22.0288 5.85C23.2621 5.85 24.3705 6.13333 25.3538 6.7C26.3538 7.26667 27.1371 8.05833 27.7038 9.075C28.2705 10.075 28.5538 11.2083 28.5538 12.475C28.5538 13.7417 28.2705 14.8833 27.7038 15.9C27.1371 16.9 26.3538 17.6833 25.3538 18.25C24.3705 18.8167 23.2621 19.1 22.0288 19.1ZM22.0288 17.975C23.0288 17.975 23.9205 17.7417 24.7038 17.275C25.5038 16.8083 26.1288 16.1583 26.5788 15.325C27.0455 14.4917 27.2788 13.5417 27.2788 12.475C27.2788 11.4083 27.0455 10.4583 26.5788 9.625C26.1288 8.79167 25.5038 8.14167 24.7038 7.675C23.9205 7.20833 23.0288 6.975 22.0288 6.975C21.0288 6.975 20.1288 7.20833 19.3288 7.675C18.5455 8.14167 17.9205 8.79167 17.4538 9.625C17.0038 10.4583 16.7788 11.4083 16.7788 12.475C16.7788 13.5417 17.0038 14.4917 17.4538 15.325C17.9205 16.1583 18.5455 16.8083 19.3288 17.275C20.1288 17.7417 21.0288 17.975 22.0288 17.975ZM33.6317 8.8C34.0317 7.85 34.6567 7.125 35.5067 6.625C36.3567 6.10833 37.3901 5.85 38.6067 5.85V7.075L38.3067 7.05C36.8567 7.05 35.7234 7.50833 34.9067 8.425C34.0901 9.325 33.6817 10.5833 33.6817 12.2V19H32.4317V5.95H33.6317V8.8ZM49.1118 18.175C48.7952 18.475 48.3952 18.7083 47.9118 18.875C47.4451 19.025 46.9535 19.1 46.4368 19.1C45.3035 19.1 44.4285 18.7917 43.8118 18.175C43.1951 17.5417 42.8868 16.6667 42.8868 15.55V7.025H40.4868V5.95H42.8868V3.1H44.1368V5.95H48.2868V7.025H44.1368V15.425C44.1368 16.275 44.3368 16.925 44.7368 17.375C45.1535 17.8083 45.7618 18.025 46.5618 18.025C47.3785 18.025 48.0535 17.7833 48.5868 17.3L49.1118 18.175ZM63.1589 12.775H51.9339C51.9672 13.7917 52.2256 14.7 52.7089 15.5C53.1922 16.2833 53.8422 16.8917 54.6589 17.325C55.4922 17.7583 56.4256 17.975 57.4589 17.975C58.3089 17.975 59.0922 17.825 59.8089 17.525C60.5422 17.2083 61.1506 16.75 61.6339 16.15L62.3589 16.975C61.7922 17.6583 61.0756 18.1833 60.2089 18.55C59.3589 18.9167 58.4339 19.1 57.4339 19.1C56.1339 19.1 54.9756 18.8167 53.9589 18.25C52.9422 17.6833 52.1422 16.9 51.5589 15.9C50.9922 14.9 50.7089 13.7583 50.7089 12.475C50.7089 11.2083 50.9756 10.075 51.5089 9.075C52.0589 8.05833 52.8089 7.26667 53.7589 6.7C54.7089 6.13333 55.7756 5.85 56.9589 5.85C58.1422 5.85 59.2006 6.13333 60.1339 6.7C61.0839 7.25 61.8256 8.025 62.3589 9.025C62.9089 10.025 63.1839 11.1583 63.1839 12.425L63.1589 12.775ZM56.9589 6.95C56.0422 6.95 55.2172 7.15833 54.4839 7.575C53.7506 7.975 53.1589 8.55 52.7089 9.3C52.2756 10.0333 52.0256 10.8667 51.9589 11.8H61.9589C61.9089 10.8667 61.6589 10.0333 61.2089 9.3C60.7589 8.56667 60.1672 7.99167 59.4339 7.575C58.7006 7.15833 57.8756 6.95 56.9589 6.95ZM67.0509 5.95H68.3009V19H67.0509V5.95ZM67.6759 2.775C67.3925 2.775 67.1509 2.68333 66.9509 2.5C66.7509 2.3 66.6509 2.05833 66.6509 1.775C66.6509 1.49167 66.7509 1.25 66.9509 1.05C67.1509 0.849999 67.3925 0.75 67.6759 0.75C67.9592 0.75 68.2009 0.849999 68.4009 1.05C68.6009 1.23333 68.7009 1.46667 68.7009 1.75C68.7009 2.03333 68.6009 2.275 68.4009 2.475C68.2009 2.675 67.9592 2.775 67.6759 2.775ZM78.6694 19.1C77.4361 19.1 76.3194 18.8167 75.3194 18.25C74.3361 17.6833 73.5611 16.9 72.9944 15.9C72.4278 14.8833 72.1444 13.7417 72.1444 12.475C72.1444 11.2083 72.4278 10.075 72.9944 9.075C73.5611 8.05833 74.3361 7.26667 75.3194 6.7C76.3194 6.13333 77.4361 5.85 78.6694 5.85C79.9028 5.85 81.0111 6.13333 81.9944 6.7C82.9944 7.26667 83.7778 8.05833 84.3444 9.075C84.9111 10.075 85.1944 11.2083 85.1944 12.475C85.1944 13.7417 84.9111 14.8833 84.3444 15.9C83.7778 16.9 82.9944 17.6833 81.9944 18.25C81.0111 18.8167 79.9028 19.1 78.6694 19.1ZM78.6694 17.975C79.6694 17.975 80.5611 17.7417 81.3444 17.275C82.1444 16.8083 82.7694 16.1583 83.2194 15.325C83.6861 14.4917 83.9194 13.5417 83.9194 12.475C83.9194 11.4083 83.6861 10.4583 83.2194 9.625C82.7694 8.79167 82.1444 8.14167 81.3444 7.675C80.5611 7.20833 79.6694 6.975 78.6694 6.975C77.6694 6.975 76.7694 7.20833 75.9694 7.675C75.1861 8.14167 74.5611 8.79167 74.0944 9.625C73.6444 10.4583 73.4194 11.4083 73.4194 12.475C73.4194 13.5417 73.6444 14.4917 74.0944 15.325C74.5611 16.1583 75.1861 16.8083 75.9694 17.275C76.7694 17.7417 77.6694 17.975 78.6694 17.975ZM100.322 9.975H104.022V17.075C103.072 17.7917 101.972 18.3417 100.722 18.725C99.4724 19.1083 98.214 19.3 96.9474 19.3C95.1307 19.3 93.4974 18.9167 92.0474 18.15C90.5974 17.3667 89.4557 16.2917 88.6224 14.925C87.8057 13.5417 87.3974 11.9833 87.3974 10.25C87.3974 8.51667 87.8057 6.96667 88.6224 5.6C89.4557 4.21667 90.6057 3.14167 92.0724 2.375C93.539 1.59167 95.189 1.2 97.0224 1.2C98.5557 1.2 99.9474 1.45833 101.197 1.975C102.447 2.49167 103.497 3.24167 104.347 4.225L101.747 6.625C100.497 5.30833 98.989 4.65 97.2224 4.65C96.1057 4.65 95.114 4.88333 94.2474 5.35C93.3807 5.81667 92.7057 6.475 92.2224 7.325C91.739 8.175 91.4974 9.15 91.4974 10.25C91.4974 11.3333 91.739 12.3 92.2224 13.15C92.7057 14 93.3724 14.6667 94.2224 15.15C95.089 15.6167 96.0724 15.85 97.1724 15.85C98.339 15.85 99.389 15.6 100.322 15.1V9.975ZM111.234 7.325C111.701 6.675 112.326 6.18333 113.109 5.85C113.909 5.51667 114.826 5.35 115.859 5.35V8.95C115.426 8.91667 115.134 8.9 114.984 8.9C113.868 8.9 112.993 9.21667 112.359 9.85C111.726 10.4667 111.409 11.4 111.409 12.65V19H107.509V5.55H111.234V7.325ZM123.53 5.35C125.614 5.35 127.214 5.85 128.33 6.85C129.447 7.83333 130.005 9.325 130.005 11.325V19H126.355V17.325C125.622 18.575 124.255 19.2 122.255 19.2C121.222 19.2 120.322 19.025 119.555 18.675C118.805 18.325 118.23 17.8417 117.83 17.225C117.43 16.6083 117.23 15.9083 117.23 15.125C117.23 13.875 117.697 12.8917 118.63 12.175C119.58 11.4583 121.039 11.1 123.005 11.1H126.105C126.105 10.25 125.847 9.6 125.33 9.15C124.814 8.68333 124.039 8.45 123.005 8.45C122.289 8.45 121.58 8.56667 120.88 8.8C120.197 9.01667 119.614 9.31667 119.13 9.7L117.73 6.975C118.464 6.45833 119.339 6.05833 120.355 5.775C121.389 5.49167 122.447 5.35 123.53 5.35ZM123.23 16.575C123.897 16.575 124.489 16.425 125.005 16.125C125.522 15.8083 125.889 15.35 126.105 14.75V13.375H123.43C121.83 13.375 121.03 13.9 121.03 14.95C121.03 15.45 121.222 15.85 121.605 16.15C122.005 16.4333 122.547 16.575 123.23 16.575ZM150.76 5.35C152.443 5.35 153.777 5.85 154.76 6.85C155.76 7.83333 156.26 9.31667 156.26 11.3V19H152.36V11.9C152.36 10.8333 152.135 10.0417 151.685 9.525C151.252 8.99167 150.627 8.725 149.81 8.725C148.893 8.725 148.168 9.025 147.635 9.625C147.102 10.2083 146.835 11.0833 146.835 12.25V19H142.935V11.9C142.935 9.78333 142.085 8.725 140.385 8.725C139.485 8.725 138.768 9.025 138.235 9.625C137.702 10.2083 137.435 11.0833 137.435 12.25V19H133.535V5.55H137.26V7.1C137.76 6.53333 138.368 6.1 139.085 5.8C139.818 5.5 140.618 5.35 141.485 5.35C142.435 5.35 143.293 5.54167 144.06 5.925C144.827 6.29167 145.443 6.83333 145.91 7.55C146.46 6.85 147.152 6.30833 147.985 5.925C148.835 5.54167 149.76 5.35 150.76 5.35Z" fill="#F67D5C"/>
</svg>
